<?xml version="1.0" encoding="UTF-8"?><svg id="a" xmlns="http://www.w3.org/2000/svg" width="621" height="486" xmlns:xlink="http://www.w3.org/1999/xlink" viewBox="0 0 621 486"><defs><linearGradient id="b" x1="-2.57" y1="-163.57" x2="566.32" y2="609.75" gradientUnits="userSpaceOnUse"><stop offset="0" stop-color="#679ff5"/><stop offset=".12" stop-color="#738ef4"/><stop offset=".37" stop-color="#9262f1"/><stop offset=".51" stop-color="#a746f0"/><stop offset=".62" stop-color="#9c44ef"/><stop offset=".81" stop-color="#7f40ee"/><stop offset="1" stop-color="#5e3bee"/></linearGradient><filter id="c" filterUnits="userSpaceOnUse"><feOffset dx="7" dy="7"/><feGaussianBlur result="d" stdDeviation="5"/><feFlood flood-color="#000" flood-opacity=".42"/><feComposite in2="d" operator="in"/><feComposite in="SourceGraphic"/></filter></defs><path d="M597,126.57l-69.45,51.09c-4.3-17.64-20.2-30.74-39.17-30.74-23.02-.09-41.53,19.49-40.28,42.4v236.53h-80.85v-239.08h-.14c-2.66-52.88-78.01-52.84-80.65,0h-.05v239.08h-80.8v-239.08h-.1c-2.66-52.88-78.01-52.84-80.65,0h-.1v239.08H43.24v-239.08h.05c-.92-109.07,123.86-168.49,202.79-94.29,45.23-42.78,117.1-42.51,162.03.58,62.78-57.89,153.49-33.2,188.89,33.51Z" fill="url(#b)" filter="url(#c)" stroke-width="0"/></svg>