<?xml version="1.0" encoding="UTF-8"?><svg id="a" xmlns="http://www.w3.org/2000/svg" width="2936" height="480" xmlns:xlink="http://www.w3.org/1999/xlink" viewBox="0 0 2936 480"><defs><linearGradient id="b" x1="10.43" y1="-161.8" x2="558.88" y2="583.73" gradientUnits="userSpaceOnUse"><stop offset="0" stop-color="#679ff5"/><stop offset=".12" stop-color="#738ef4"/><stop offset=".37" stop-color="#9262f1"/><stop offset=".51" stop-color="#a746f0"/><stop offset=".62" stop-color="#9c44ef"/><stop offset=".81" stop-color="#7f40ee"/><stop offset="1" stop-color="#5e3bee"/></linearGradient><filter id="c" filterUnits="userSpaceOnUse"><feOffset dx="7" dy="7"/><feGaussianBlur result="d" stdDeviation="5"/><feFlood flood-color="#000" flood-opacity=".42"/><feComposite in2="d" operator="in"/><feComposite in="SourceGraphic"/></filter></defs><path d="M1132.03,200.39c-12.71-8.33-28.19-13.24-44.9-13.24-14.03,0-27.2,3.45-38.58,9.47-4.74,2.51-9.16,5.46-13.21,8.8-16.07,13.26-26.27,32.56-26.43,54.11v2.9l.25,100.06c-2.62.65-5.63.94-7.99.94-11.12,0-13.43-6.08-13.43-15.53v-97.79c0-44.91-36.09-68.2-82.68-68.2-50.58,0-88.14,27.7-88.98,73.66h48.27c.84-21.4,17-32.32,39.87-32.32,21.4,0,34.42,9.65,34.42,26.86,0,21.83-19.73,23.92-52.46,30.01-38.27,6.94-64.91,19.49-73.78,45.24v-68.89c-.08-1.43-.04-2.84.13-4.23-.02-22.6-9.77-42.92-25.28-57-2.71-2.46-5.6-4.73-8.64-6.79-.02,0-.03-.02-.04-.03-26.09-18.43-61.75-18.14-87.52.98-2.4,1.7-4.71,3.54-6.9,5.51-50.05-46.82-129.01-9.15-128.42,59.93h-.03v151.59h51.69v-151.59h.06c1.66-33.15,48.46-33.52,51.07-1.04.02.34.05.69.07,1.04h.06v151.59h51.23v-151.59h.03c1.67-33.5,49.45-33.53,51.14,0h.09v151.59h51.26v-39.08c8.45,25.47,32.73,39.08,63.5,39.08s55.4-13.64,69.67-35.05c4.83,19.31,18.47,32.32,42.81,32.32,8.73,0,16.51-1.74,20.89-3.29l.02,6.02h52.27v-142.65c-.81-13.82,11.16-25.62,26.04-25.57,12.27,0,22.55,7.9,25.33,18.54l19.12-13.12v157.35h49.53v-213.63h-49.53v13.03ZM938.64,336.56c-9.65,17.21-29.38,28.96-52.46,28.96-16.58,0-27.49-6.72-27.49-22.87,0-17.21,12.59-24.13,36.31-29.8,23.29-5.46,33.37-9.23,43.65-19.1v42.81ZM1181.98,133.1c0,13.73-11.13,24.87-24.87,24.87h-.63c-13.73,0-24.87-11.13-24.87-24.87s11.13-24.87,24.87-24.87h.63c13.73,0,24.87,11.13,24.87,24.87ZM1383.29,263.74v137.25h-49.32v-126.96c0-34-15.32-50.36-39.45-50.36s-41.55,18.89-41.55,52.46v124.86h-49.53v-213.63h47.64v30.64c10.91-22.87,35.47-36.09,60.23-36.09,44.07,0,71.98,29.38,71.98,81.84ZM1798.35,181.89c-33,0-59.03,13.33-76.28,35.35-14.22-18.23-37.24-30.1-63.27-30.1-14.03,0-27.2,3.45-38.58,9.47-4.74,2.51-9.16,5.46-13.21,8.8-16.07,13.26-26.27,32.56-26.43,54.11v2.9l.26,100.94c-9.86-.52-11.99-6.46-11.99-15.48v-97.79c0-44.91-36.09-68.2-82.68-68.2-50.57,0-88.14,27.7-88.98,73.66h48.27c.84-21.4,17-32.32,39.87-32.32,21.4,0,34.42,9.65,34.42,26.86,0,21.83-19.73,23.92-52.46,30.01-47.43,8.6-77.02,25.81-77.02,66.1s28.33,60.23,66.73,60.23c30.43,0,55.4-13.64,69.67-35.05,4.83,19.31,18.47,32.32,42.81,32.32,4.12,0,8.01-.4,11.46-.97v3.7h52.28v-142.65c-.81-13.82,11.16-25.62,26.04-25.57,12.27,0,22.55,7.9,25.33,18.54l23.95-16.44c-6.73,15.73-10.29,33.91-10.29,53.64,0,64.85,39.87,112.48,101.78,112.48,48.9,0,86.25-27.91,94.22-69.67h-46.38c-4.83,18.89-24.76,28.33-46.17,28.33-32.74,0-51.83-24.97-53.09-58.13h148.16v-15.95c0-66.73-39.03-109.12-98.42-109.12ZM1519.76,336.56c-9.65,17.21-29.38,28.96-52.46,28.96-16.58,0-27.49-6.72-27.49-22.87,0-17.21,12.59-24.13,36.31-29.8,23.29-5.46,33.37-9.23,43.65-19.1v42.81ZM1748.62,271.08c2.52-27.28,20.36-47.85,49.53-47.85s46.59,19.73,48.48,47.85h-98ZM1953.92,133.1c0,13.73-11.13,24.87-24.87,24.87h-.63c-13.73,0-24.87-11.13-24.87-24.87s11.13-24.87,24.87-24.87h.63c13.73,0,24.87,11.13,24.87,24.87ZM1903.97,187.35h49.53v213.63h-49.53v-213.63ZM2082.61,292.28l68.83,108.71h-54.98l-43.65-71.77-43.65,71.77h-55.19l69.04-108.71-65.89-104.93h54.56l41.13,67.99,41.13-67.99h54.56l-65.89,104.93ZM2315.82,347.89v-97.79c0-44.91-36.09-68.2-82.68-68.2-50.57,0-88.14,27.7-88.98,73.66h48.27c.84-21.4,17-32.32,39.87-32.32,21.4,0,34.42,9.65,34.42,26.86,0,21.83-19.73,23.92-52.46,30.01-47.43,8.6-77.02,25.81-77.02,66.1s28.33,60.23,66.73,60.23c30.43,0,55.4-13.64,69.67-35.05,4.83,19.31,18.47,32.32,42.81,32.32,10.07,0,18.89-2.31,22.66-3.99v-37.77c-2.94,1.05-6.93,1.47-9.86,1.47-11.12,0-13.43-6.08-13.43-15.53ZM2266.72,336.56c-9.65,17.21-29.38,28.96-52.46,28.96-16.58,0-27.49-6.72-27.49-22.87,0-17.21,12.59-24.13,36.31-29.8,23.29-5.46,33.37-9.23,43.65-19.1v42.81ZM2466.56,318.3h49.11c-3.99,52.67-38.4,88.14-91.92,88.14-59.6,0-98.21-45.75-98.21-112.69s36.31-111.85,98.63-111.85c51.2,0,85.2,31.27,90.66,79.54h-48.9c-3.15-24.55-19.73-37.77-41.55-37.77-30.64,0-48.69,28.54-48.69,70.09s17.63,70.93,48.48,70.93c23.5,0,40.5-17.42,42.39-46.38ZM2699.35,263.74v137.25h-49.32v-126.96c0-34-15.32-50.36-39.24-50.36-25.18,0-41.76,18.68-41.76,53.51v123.81h-49.53V106.14h49.53v108.7c11.54-20.99,34.63-32.95,58.34-32.95,44.07,0,71.98,29.38,71.98,81.84ZM2878,336.77c0,47.85-40.5,69.67-86.04,69.67-53.93,0-87.72-28.96-88.77-76.39h48.06c.42,24.34,17.42,36.31,42.18,36.31,20.15,0,35.68-9.23,35.68-25.18,0-22.66-24.97-24.97-50.16-30.43-37.35-8.18-71.77-21.83-71.77-63.59,0-45.54,36.72-65.26,81.84-65.26,48.27,0,80.37,22.87,81.63,69.88h-48.06c-.42-20.57-15.32-29.8-34.42-29.8-21.4,0-32.11,9.65-32.11,22.87,0,18.68,18.68,20.36,51,27.91,38.19,9.02,70.93,23.08,70.93,64.01Z" fill="#3c3842" stroke-width="0"/><path d="M588.46,117.91l-66.95,49.26c-4.15-17-19.48-29.63-37.77-29.63-22.19-.08-40.04,18.79-38.83,40.88v228.03h-77.94v-230.49h-.14c-2.56-50.98-75.21-50.94-77.76,0h-.05v230.49h-77.9v-230.49h-.09c-2.56-50.98-75.21-50.94-77.76,0h-.09v230.49H54.6v-230.49h.05c-.89-105.15,119.41-162.44,195.5-90.9,43.61-41.24,112.9-40.98,156.21.56,60.52-55.81,147.98-32.01,182.11,32.31Z" fill="url(#b)" filter="url(#c)" stroke-width="0"/></svg>